<?xml version="1.0" standalone="no"?>
<!DOCTYPE svg PUBLIC "-//W3C//DTD SVG 20010904//EN"
 "http://www.w3.org/TR/2001/REC-SVG-20010904/DTD/svg10.dtd">
<svg version="1.0" xmlns="http://www.w3.org/2000/svg"
 width="32.000000pt" height="32.000000pt" viewBox="0 0 32.000000 32.000000"
 preserveAspectRatio="xMidYMid meet">

<g transform="translate(0.000000,32.000000) scale(0.100000,-0.100000)"
fill="#000000" stroke="none">
<path d="M0 160 l0 -160 160 0 160 0 0 160 0 160 -160 0 -160 0 0 -160z m237
53 c23 -31 14 -34 -28 -7 -37 23 -40 24 -34 6 3 -11 1 -23 -5 -27 -5 -3 -10 1
-10 9 0 11 -9 16 -30 16 -16 0 -30 -5 -30 -11 0 -14 -18 -2 -31 22 -10 20 -9
21 73 15 62 -4 86 -10 95 -23z"/>
</g>
</svg>
